<svg width="30" height="30" viewBox="0 0 30 30" fill="none" xmlns="http://www.w3.org/2000/svg">
<path d="M4.39448 0H0.87886C0.393509 0 0 0.393509 0 0.878919V4.45315C0 4.93856 0.39345 5.33207 0.878919 5.33207C1.36433 5.33207 1.75784 4.93856 1.75784 4.45315V1.75784H4.39454C4.87995 1.75784 5.27346 1.36433 5.27346 0.878919C5.2734 0.393509 4.87989 0 4.39448 0Z" fill="black"/>
<path d="M29.1211 0H25.6055C25.1201 0 24.7266 0.393509 24.7266 0.878919C24.7266 1.36433 25.12 1.75784 25.6055 1.75784H28.2422V4.45315C28.2422 4.93856 28.6357 5.33207 29.1211 5.33207C29.6065 5.33207 30 4.93856 30 4.45315V0.878919C30 0.393509 29.6065 0 29.1211 0Z" fill="black"/>
<path d="M4.39454 28.2422H1.75784V25.5469C1.75784 25.0615 1.36433 24.668 0.878919 24.668C0.393509 24.668 0 25.0615 0 25.5469V29.1211C0 29.6065 0.39345 30 0.878919 30H4.39454C4.87995 30 5.27346 29.6065 5.27346 29.1211C5.27346 28.6357 4.87995 28.2422 4.39454 28.2422Z" fill="black"/>
<path d="M29.1211 24.668C28.6357 24.668 28.2422 25.0615 28.2422 25.5469V28.2422H25.6055C25.1201 28.2422 24.7266 28.6357 24.7266 29.1211C24.7266 29.6065 25.1201 30 25.6055 30H29.1211C29.6065 30 30 29.6065 30 29.1211V25.5469C30 25.0615 29.6065 24.668 29.1211 24.668Z" fill="black"/>
<path d="M27.6786 7.21038L15.4376 0.118422C15.1652 -0.039474 14.8289 -0.039474 14.5564 0.118422L2.31053 7.21032C2.04057 7.36675 1.87207 7.65798 1.87207 7.97026C1.87207 7.97202 1.87225 7.97377 1.87225 7.97547V22.0375C1.87225 22.3527 2.04356 22.6478 2.31944 22.8031L14.5565 29.89C14.6883 29.9664 14.8452 30.0084 14.9971 30.0084C15.1558 30.0084 15.3108 29.9635 15.4378 29.89L27.6698 22.803C27.6719 22.8019 27.6739 22.8007 27.6759 22.7995C27.9594 22.595 28.1122 22.4231 28.1165 22.0481C28.1166 22.0446 28.1169 22.0411 28.1169 22.0376V7.97559C28.1169 7.97383 28.117 7.97208 28.117 7.97038C28.117 7.65781 27.9484 7.36651 27.6786 7.21038ZM14.1181 27.6046L4.51627 22.0415L11.9187 17.7964C12.3398 17.5549 12.4854 17.0178 12.2439 16.5967C12.0024 16.1756 11.4653 16.0301 11.0442 16.2716L3.62991 20.5203V9.48949L14.1181 15.5129V27.6046ZM14.9971 13.9906L4.51498 7.96774L14.9971 1.89466L25.4792 7.96774L14.9971 13.9906ZM26.3648 20.5203L18.9499 16.2715C18.5289 16.0301 17.9918 16.1756 17.7503 16.5967C17.5088 17.0178 17.6543 17.5548 18.0755 17.7963L25.4779 22.0413L15.8759 27.6045V15.5129L26.3647 9.48949V20.5203H26.3648Z" fill="black"/>
</svg>
