<svg width="13" height="11" viewBox="0 0 13 11" fill="none" xmlns="http://www.w3.org/2000/svg">
<path d="M12.3099 1.9798C11.8728 2.17043 11.4104 2.29711 10.9372 2.35593C11.436 2.06021 11.809 1.5918 11.9855 1.03946C11.5184 1.31644 11.0075 1.51149 10.4747 1.61616C10.148 1.26745 9.72401 1.02503 9.25778 0.920381C8.79156 0.815738 8.30463 0.853709 7.86026 1.02936C7.41589 1.20502 7.03461 1.51023 6.76593 1.90537C6.49726 2.30051 6.35362 2.76731 6.35366 3.24514C6.35232 3.42775 6.37138 3.60994 6.41048 3.78832C5.46276 3.74179 4.53553 3.49576 3.6894 3.06634C2.84327 2.63691 2.0973 2.03375 1.50025 1.29627C1.19429 1.82014 1.09965 2.44097 1.23564 3.0322C1.37162 3.62343 1.72798 4.14054 2.23207 4.47809C1.85504 4.46803 1.48596 4.36748 1.15593 4.18491V4.21446C1.15655 4.76456 1.34666 5.29765 1.69427 5.72401C2.04187 6.15037 2.52575 6.44396 3.06445 6.55537C2.86052 6.6091 2.65034 6.63547 2.43945 6.63378C2.28804 6.6364 2.13679 6.62268 1.98832 6.59286C2.14283 7.06459 2.43951 7.47696 2.83767 7.77339C3.23583 8.06982 3.71596 8.2358 4.21218 8.24855C3.36904 8.90911 2.32872 9.26782 1.25763 9.2673C1.06773 9.26841 0.877953 9.25741 0.689453 9.23434C1.77869 9.93649 3.04807 10.3079 4.344 10.3037C5.23606 10.3099 6.12047 10.1389 6.94586 9.80044C7.77125 9.46201 8.52116 8.96294 9.15203 8.33222C9.78291 7.70151 10.2822 6.95172 10.6208 6.12641C10.9595 5.30111 11.1307 4.41674 11.1247 3.52468C11.1247 3.41957 11.1213 3.31787 11.1162 3.21673C11.586 2.88041 11.9905 2.46125 12.3099 1.9798Z" fill="black"/>
</svg>
